<svg width="1377" height="480" viewBox="0 0 1377 480" fill="none" xmlns="http://www.w3.org/2000/svg">
<path d="M16.9461 390.796C16.5011 382.776 15.2521 375.083 15.9583 367.574C17.1106 355.322 28.5795 350.139 39.1379 356.542C44.2598 359.648 49.1193 363.189 54.0841 366.552C86.9268 388.805 123.076 400.473 162.837 401.293C181.029 401.669 199.114 401.545 217.017 397.965C228.141 395.741 238.311 391.425 246.835 383.717C269.285 363.418 257.065 339.443 240.983 330.105C224.359 320.452 206.695 312.96 188.132 308.003C159.533 300.366 130.641 293.802 102.139 285.834C81.047 279.938 60.7436 271.762 44.5435 256.125C16.7515 229.3 14.3722 187.793 38.9281 157.934C55.8737 137.329 78.7804 126.383 104.225 122.457C133.932 117.874 163.847 117.981 193.112 127.74C227.05 139.058 246.585 162.387 253.339 197.033C253.907 199.946 254.096 203.018 253.9 205.978C253.44 212.928 246.394 216.89 240.571 213.149C236.734 210.684 233.259 207.353 230.343 203.816C223.253 195.214 217.037 185.861 209.635 177.554C198.634 165.207 183.534 160.121 167.994 156.379C137.996 149.156 110.578 155.315 85.5363 172.869C77.6049 178.429 71.3964 185.671 67.8651 194.735C61.6085 210.795 68.5758 228.103 85.0818 235.53C98.2608 241.46 111.995 246.203 125.628 251.068C165.295 265.225 205.101 278.996 244.699 293.343C254.339 296.836 263.987 301.021 272.593 306.515C295.75 321.298 304.248 342.923 300.683 370.045C296.982 398.195 279.846 414.83 255.117 425.269C235.268 433.648 214.536 437.994 192.918 437.925C180.087 437.883 167.25 438.311 154.425 438.069C119.088 437.402 84.6583 431.007 50.9388 420.706C40.3854 417.482 31.3958 411.304 24.1455 403.029C21.1604 399.623 19.3596 395.178 16.9461 390.796Z" fill="#38B7FD"/>
<path d="M738.313 331C759.474 331.034 780.635 331.07 801.796 331.102C830.626 331.146 859.455 331.186 888.285 331.227C890.406 331.23 892.527 331.228 895.3 331.228C895.3 371.744 895 412.035 895 452C887.779 452 881.5 452 875 452C871 452 866 452 861 452C860.5 447.5 861.615 444.76 860.11 441.071C855.513 429.801 840.622 422.602 828.518 425.482C817.498 428.103 806.005 436.732 807.5 451.5C807.564 452.244 807 452 806.653 452.285C803.787 452.285 800.379 452.304 797.329 452.285C772.866 452.136 748.401 452.112 723.939 452.31C720 452.342 715.5 452.31 710.5 452.31C710 448.5 710.235 445.635 709 442C705.458 431.574 694.918 424.854 682.898 424.989C670.654 425.128 661.036 431.623 657.402 442.679C656.232 446.241 656.357 447.77 655.714 451.505C650.867 451.505 645.5 451.5 640.5 451.5C632.385 451.103 624.085 451.399 616 451.399C616 413.677 616 376.319 616.01 338.111C616.134 335.49 616.248 333.719 616.397 331.392C623.216 331.392 629.67 331.413 636.124 331.389C670.187 331.265 704.25 331.131 738.313 331Z" fill="#37B6FD"/>
<path d="M1047.2 449.765C1042.3 446.873 1037.43 444.529 1033.23 441.309C1027.77 437.118 1021.75 435.645 1015.1 435.395C1006.12 435.056 997.091 434.985 988.208 433.835C978.39 432.564 969.656 428.438 963.692 420.036C958.745 413.069 958.858 405.65 963.643 399.707C968.383 393.82 975.58 392.28 983.55 395.404C985.476 396.159 987.453 396.785 990.568 397.878C988.32 392.173 986.626 387.565 984.705 383.053C977.623 366.418 976.37 348.873 976.66 331.127C977.267 294.056 986.815 259.241 1005.45 227.344C1036.38 174.4 1080.52 139.026 1142.11 127.869C1161.82 124.299 1181.48 123.795 1201.16 127.911C1214.06 130.609 1222.69 138.023 1226.13 150.892C1227.76 156.983 1229.05 163.181 1230.1 169.398C1230.42 171.318 1229.41 173.462 1229.01 175.503C1226.87 174.946 1224.46 174.838 1222.66 173.737C1218.83 171.4 1215.42 168.409 1211.67 165.926C1193.56 153.921 1173.6 146.996 1151.89 148.259C1131.79 149.429 1113.38 156.997 1096.61 168.217C1062.92 190.755 1041.5 222.592 1027.02 259.778C1013.01 295.779 1014.73 332.133 1024.26 368.67C1025.17 372.148 1027.37 375.289 1028.97 378.586C1029.61 378.462 1030.26 378.339 1030.91 378.215C1031.26 375.915 1031.83 373.623 1031.92 371.314C1032.31 360.399 1038.62 353.644 1048.66 353.557C1057.48 353.481 1064.83 360.86 1065.32 370.731C1065.87 381.701 1063.79 392.247 1059.46 402.362C1056.11 410.207 1056.14 410.257 1063.28 414.299C1094.34 431.891 1127.17 434.985 1161.84 427.755C1191.89 421.49 1218.97 408.924 1244.37 392.346C1259.71 382.34 1274.46 371.455 1289.6 361.153C1292.52 359.167 1292.31 357.42 1291.08 354.635C1284.12 338.865 1282.56 322.544 1287.32 305.925C1288.38 302.23 1290.78 298.707 1293.26 295.674C1298.31 289.492 1304.39 288.088 1311.04 290.863C1318.31 293.898 1321.66 299.372 1320.92 307.363C1320.39 313.162 1319.26 318.933 1319.11 324.736C1318.66 341.395 1330.52 353.117 1347.25 352.796C1352.08 352.703 1356.89 351.976 1361.71 351.96C1369.01 351.934 1372.44 357.463 1375.38 362.83C1378.2 367.99 1376.98 373.152 1373.17 377.654C1368.98 382.591 1363.8 385.595 1357.25 385.934C1343.43 386.647 1329.54 387.953 1316.93 380.173C1312.78 377.611 1309.46 379.508 1306.04 382.051C1289.22 394.586 1272.74 407.634 1255.36 419.344C1223.84 440.578 1189.62 456.091 1151.89 462.259C1116.08 468.113 1080.82 466.739 1047.2 449.765Z" fill="#F61B1C"/>
<path d="M424.039 116.095C435.022 113.694 445.921 109.758 457.002 109.156C507.176 106.431 549.769 136.998 562.086 185.788C569.891 216.701 563.58 246.001 543.682 271.514C533.537 284.521 521.322 295.669 505.887 301.81C495.334 306.007 491.917 312.847 490.915 323.444C487.317 361.495 482.994 399.477 478.911 437.482C478.627 440.12 478.155 442.748 477.606 445.346C474.628 459.447 469.739 464.611 455.072 466.638C437.784 469.026 421.382 466.652 408.309 453.584C406.569 451.844 404.994 448.811 405.14 446.49C406.453 425.589 408.024 404.701 409.808 383.833C411.365 365.618 413.293 347.434 415.062 329.236C415.753 322.122 416.134 314.958 417.281 307.919C417.885 304.214 416.769 301.785 414.209 299.62C408.363 294.677 402.391 289.88 396.625 284.846C377.975 268.564 367.836 247.621 364.111 223.514C359.666 194.751 366.811 168.844 385.896 146.891C393.467 138.181 402.861 131.057 412.016 122.902C416.418 120.428 420.228 118.262 424.039 116.095ZM549.807 212.021C549.538 207.38 549.53 202.706 548.955 198.104C546.303 176.902 536.701 159.158 520.885 145.056C510.027 135.375 496.743 129.566 482.756 126.182C474.843 124.268 466.272 123.322 458.203 124.091C415.862 128.126 379.221 160.76 378.78 207.757C378.501 237.475 389.75 261.481 413.804 279.055C432.583 292.776 453.902 297.487 476.704 294.1C510.88 289.023 532.871 268.888 545.234 236.392C546.708 228.566 548.181 220.741 549.807 212.021Z" fill="#C8DF6C"/>
<path d="M737.802 330.501C703.923 330.965 669.86 331.1 635.797 331.224C629.343 331.247 622.89 331.227 616.07 331.227C615.921 333.553 615.808 335.325 615.589 337.531C615.282 334.333 614.908 330.701 614.903 327.069C614.847 287.075 614.85 247.08 615.353 206.635C655.538 206.185 695.206 206.185 734.839 206.185C735.208 204.125 735.467 202.679 735.726 201.234C735.742 204.046 735.766 206.859 735.773 209.671C735.865 246.59 735.916 283.509 736.112 320.427C736.129 323.677 737.094 326.921 737.802 330.501Z" fill="#C8DE6C"/>
<path d="M735.667 200.738C735.467 202.679 735.208 204.125 734.839 206.185C695.206 206.185 655.538 206.185 615.396 206.179C614.877 205.943 614.832 205.713 614.858 204.8C614.859 203.187 614.791 202.255 614.722 201.324C614.722 163.512 614.722 125.7 614.722 87.567C655.067 87.567 694.99 87.567 735.607 87.567C735.607 125.056 735.607 162.649 735.667 200.738Z" fill="#F61A1B"/>
<path d="M49.5722 114.508C41.8547 112.381 36.2347 107.765 31.2619 102.309C15.888 85.442 4.50779 66.4329 0.659203 43.581C0.118291 40.3692 0.300307 36.9334 0.732298 33.6789C2.12105 23.2164 10.8326 18.2122 20.8504 21.896C29.8857 25.2186 36.5645 31.6331 42.7096 38.6896C54.6139 52.3598 64.4312 67.2845 68.2839 85.2847C69.52 91.0595 69.3506 97.1753 69.4559 103.142C69.5857 110.505 61.6008 118.136 49.5722 114.508Z" fill="#F61C1D"/>
<path d="M257.203 49.3171C253.034 74.115 244.02 96.0555 225.24 112.931C216.001 121.233 206.893 121.186 199.819 113.277C198.56 111.869 197.267 109.909 197.164 108.136C195.255 75.2615 205.489 47.0573 229.887 24.4522C231.329 23.1154 233.079 22.0317 234.839 21.1276C245.61 15.5933 254.867 20.4072 256.88 33.0249C257.705 38.1955 257.172 43.5826 257.203 49.3171Z" fill="#F61B1C"/>
<path d="M114.46 15.5633C117.491 11.4036 119.85 7.04021 123.307 3.87652C129.476 -1.76987 136.356 -0.960219 142.251 5.04289C151.129 14.0831 154.37 25.3775 155.435 37.5498C156.945 54.8098 158.202 72.1594 151.863 88.751C149.869 93.9684 146.35 98.9489 142.454 103.004C137.735 107.916 131.737 107.529 126.243 103.445C118.482 97.6764 114.352 89.5217 112.501 80.4437C108.718 61.8853 108.626 43.1606 111.835 24.4737C112.335 21.5616 113.452 18.7555 114.46 15.5633Z" fill="#F61B1C"/>
<path d="M655.125 454.024C655.125 450 655.905 446.076 657.076 442.513C660.709 431.458 670.328 424.962 682.572 424.824C694.591 424.688 705.692 431.503 709.233 441.928C710.468 445.563 710.092 449.745 710.608 454.172C710.3 463.092 707.163 470.2 699.841 474.749C696.442 476.861 692.605 479.048 688.771 479.489C683.59 480.084 678.139 479.497 672.95 478.585C662.301 476.715 658.588 468.069 656 459C655.551 457.426 655.125 456 655.125 454.024ZM695.214 453.546C694.582 451.189 694.35 448.62 693.241 446.515C690.466 441.251 682.81 439.115 677.131 441.68C672.18 443.916 669.209 450.898 671.091 456.771C672.402 458.421 673.539 460.255 675.058 461.682C678.24 464.671 682.045 466.192 686.345 464.516C690.94 462.725 694.858 460.125 695.214 453.546Z" fill="#030406"/>
<path d="M807 454.184C807.201 453.212 807.204 452.212 807.11 451.274C805.615 436.506 817.672 428.122 828.691 425.5C840.796 422.62 855.686 429.819 860.283 441.089C861.788 444.778 861.308 449.005 862 453.5C862 454 862 453.5 862 454C862 454.984 861.769 455.993 861.735 456.803C860.236 471.325 849.985 480.376 835.275 479.984C831.639 479.888 827.944 479.628 824.399 478.871C813.016 476.442 809.062 467.876 807.399 456.869C807.128 455.476 807 455.5 807 455.184C807 455.184 806.966 454.191 807 454.184ZM846.034 457.139C846.134 455.503 846.447 453.847 846.294 452.236C845.782 446.825 842.072 442.142 837.497 440.832C832.06 439.274 828.213 441.998 824.989 445.771C821.85 449.445 819.803 453.502 823.556 458.85C830.085 468.515 839.962 468.003 846.034 457.139Z" fill="#030405"/>
<path d="M614.534 201.509C614.791 202.255 614.86 203.187 614.818 204.451C614.588 203.754 614.467 202.724 614.534 201.509Z" fill="#C8DE6C"/>
<path d="M695 452C688 452 677 452 670.5 452C671 447.5 672.944 443.558 677.5 441.5C683.179 438.935 690.466 441.251 693.241 446.515C694.351 448.62 694.5 449.5 695 452Z" fill="#37B2F7"/>
<path d="M821.5 453.001C821.006 449.528 821.879 446.369 825 443.5C828.206 440.553 832.146 439.133 837.552 440.349C842.101 441.373 845.79 445.031 846.299 449.257C846.458 450.572 846.299 451 846.299 453C845.311 453 844.942 453 840 453C834.5 453 837.317 453 833 453C830.247 453 825.948 453.001 821.5 453.001Z" fill="#36AEF2"/>
<path d="M545.375 212.546C543.997 220.047 542.531 227.133 541 234.596C535.263 242.867 528.456 249.239 518.551 251.294C513.444 252.354 505.656 245.253 506.461 240.216C506.603 239.333 507.842 238.576 508.659 237.858C513.018 234.03 517.859 230.635 521.675 226.329C527.272 220.013 526.877 215.329 522.041 208.369C519.604 204.86 517.342 201.105 515.767 197.155C514.103 192.983 516.592 189.356 521.104 189.128C523.989 188.982 527.32 189.165 529.772 190.473C538.387 195.068 544.252 201.954 545.375 212.546Z" fill="#C8E06E"/>
</svg>
