<svg version="1.1" id="Layer_1" xmlns="http://www.w3.org/2000/svg" xmlns:xlink="http://www.w3.org/1999/xlink" x="0px" y="0px"
	 width="100%" viewBox="0 0 1385 502" enable-background="new 0 0 1385 502" xml:space="preserve">
<path fill="#FFFFFF" opacity="1.000000" stroke="none" 
	d="
M906.000000,503.000000 
	C604.039917,503.000000 302.579834,503.000000 1.059870,503.000000 
	C1.059870,335.728760 1.059870,168.457474 1.059870,1.093098 
	C462.543488,1.093098 924.086975,1.093098 1385.815186,1.093098 
	C1385.815186,168.333176 1385.815186,335.666565 1385.815186,503.000000 
	C1226.124023,503.000000 1066.312012,503.000000 906.000000,503.000000 
M864.868347,470.935120 
	C864.868347,470.935120 864.822693,470.929565 865.533203,470.626617 
	C869.654053,469.888550 873.751831,468.740692 877.901062,468.507385 
	C884.309265,468.147095 890.752563,468.412384 897.973389,468.412384 
	C897.973389,428.446960 897.973389,388.578583 897.973389,348.062012 
	C895.200806,348.062012 893.079590,348.064667 890.958374,348.061646 
	C862.128906,348.020599 833.299500,347.980133 804.470032,347.936646 
	C783.308777,347.904724 762.147522,347.868652 740.618347,347.168549 
	C740.093750,343.921417 739.129028,340.676666 739.111755,337.426849 
	C738.915710,300.508698 738.865051,263.589722 738.773193,226.670990 
	C738.766235,223.858566 738.742310,221.046173 738.606750,217.242508 
	C738.606750,179.649475 738.606750,142.056427 738.606750,104.567017 
	C697.990356,104.567017 658.066650,104.567017 617.722229,104.567017 
	C617.722229,142.699875 617.722229,180.511871 617.346008,218.694305 
	C617.466858,219.724304 617.587708,220.754288 617.787781,222.482666 
	C617.832458,222.712646 617.877136,222.942627 617.836548,224.085434 
	C617.849731,264.080048 617.847412,304.074707 617.902527,344.069275 
	C617.907532,347.701385 618.281677,351.333008 618.673584,355.795288 
	C618.673584,393.153503 618.673584,430.511719 618.673584,468.233215 
	C626.758423,468.233215 634.906738,467.943085 643.021606,468.339661 
	C648.062012,468.585999 653.051514,469.872955 658.187012,471.354401 
	C658.503662,472.966461 658.706604,474.610992 659.155884,476.185181 
	C661.744019,485.254272 665.301147,493.715149 675.949524,495.585419 
	C681.138733,496.496826 686.590393,497.083923 691.770630,496.488770 
	C695.605469,496.048218 699.441711,493.860809 702.840881,491.748993 
	C710.163269,487.199829 713.299561,480.092346 714.489380,471.199890 
	C718.530090,470.482666 722.566040,469.177490 726.612305,469.144653 
	C751.074463,468.946014 775.539490,468.970428 800.002258,469.119415 
	C803.052856,469.137970 806.096375,470.331360 809.075195,470.995514 
	C809.075195,470.995514 809.063416,470.926910 808.940430,471.510651 
	C809.215759,472.187103 809.491150,472.863586 809.887817,474.397064 
	C811.562317,484.691833 815.516113,493.257874 826.898621,495.687592 
	C830.444275,496.444489 834.138489,496.703827 837.775085,496.800598 
	C852.484802,497.192078 862.735657,488.141174 864.727417,473.274231 
	C864.783508,472.482208 864.839661,471.690216 864.868347,470.935120 
M426.510437,132.482269 
	C418.483978,131.214600 416.977356,132.163300 414.424866,140.210480 
	C405.860931,148.056641 396.467255,155.181473 388.896027,163.890625 
	C369.810608,185.844513 362.666290,211.750900 367.110901,240.514328 
	C370.835938,264.621124 380.975037,285.564209 399.624725,301.846252 
	C405.390686,306.880157 411.363373,311.676758 417.209045,316.620270 
	C419.769196,318.785309 420.885193,321.214508 420.281464,324.918701 
	C419.134155,331.958038 418.752655,339.122528 418.061493,346.235840 
	C416.293335,364.433563 414.365143,382.617645 412.807861,400.833435 
	C411.023865,421.700775 409.452972,442.589020 408.139893,463.490204 
	C407.994080,465.811279 409.568970,468.844330 411.308960,470.583771 
	C424.381714,483.652313 440.783966,486.026093 458.071625,483.637756 
	C472.739319,481.611328 477.627625,476.446930 480.606079,462.346100 
	C481.154877,459.748047 481.627197,457.120087 481.910675,454.481842 
	C485.994446,416.477264 490.317169,378.494812 493.915344,340.443970 
	C494.917419,329.846863 498.334015,323.007538 508.886749,318.809662 
	C524.321960,312.669495 536.537415,301.520721 546.681580,288.514191 
	C566.580078,263.000977 572.890747,233.700912 565.086426,202.787918 
	C552.768860,153.997681 510.175629,123.431358 460.002106,126.155884 
	C448.921326,126.757591 438.021698,130.694351 426.510437,132.482269 
M20.020058,408.206024 
	C22.359545,412.178375 24.160402,416.622711 27.145433,420.029388 
	C34.395809,428.303741 43.385399,434.481964 53.938782,437.705963 
	C87.658279,448.007111 122.087746,454.401581 157.425201,455.068634 
	C170.250381,455.310730 183.086731,454.883484 195.917480,454.924561 
	C217.535583,454.993805 238.268448,450.648407 258.116913,442.269257 
	C282.845978,431.829712 299.982147,415.194885 303.682709,387.045135 
	C307.248230,359.922821 298.750305,338.297943 275.592957,323.514771 
	C266.987244,318.021088 257.339172,313.835846 247.699310,310.343201 
	C208.101456,295.996185 168.295288,282.225281 128.627838,268.068512 
	C114.995392,263.203247 101.260803,258.459991 88.081764,252.530014 
	C71.575798,245.103027 64.608521,227.794754 70.865059,211.734985 
	C74.396362,202.670547 80.604836,195.429214 88.536240,189.869339 
	C113.578033,172.315186 140.996445,166.156418 170.994278,173.379028 
	C186.534256,177.120605 201.633896,182.206772 212.634949,194.553589 
	C220.036896,202.861023 226.252472,212.214279 233.343307,220.815643 
	C236.259445,224.353012 239.733734,227.684128 243.570786,230.149216 
	C249.393585,233.889999 256.440033,229.928162 256.900024,222.978363 
	C257.095978,220.017700 256.906830,216.946381 256.339020,214.033295 
	C249.585419,179.386658 230.049973,156.058258 196.111496,144.740494 
	C166.846954,134.981369 136.932388,134.873886 107.224495,139.457230 
	C81.780396,143.382751 58.873711,154.328705 41.928116,174.934067 
	C17.372175,204.793442 19.751507,246.300369 47.543484,273.125458 
	C63.743595,288.761993 84.046928,296.937653 105.138916,302.833893 
	C133.641205,310.801666 162.532822,317.365753 191.131653,325.003052 
	C209.694992,329.960358 227.359116,337.452423 243.982788,347.105194 
	C260.064514,356.443268 272.285431,380.418060 249.834900,400.717438 
	C241.310638,408.424927 231.141342,412.741028 220.017258,414.965454 
	C202.114304,418.545441 184.028519,418.668854 165.837280,418.293335 
	C126.076134,417.472595 89.926826,405.804565 57.084042,383.552338 
	C52.119316,380.188599 47.259773,376.648438 42.137863,373.542267 
	C31.579439,367.139069 20.110600,372.321747 18.958241,384.574463 
	C18.252058,392.083099 19.501036,399.775635 20.020058,408.206024 
M1050.536987,466.922455 
	C1083.815796,483.738556 1119.078369,485.113190 1154.889038,479.259338 
	C1192.624023,473.090881 1226.841919,457.577576 1258.359619,436.343964 
	C1275.740967,424.634094 1292.223999,411.586426 1309.044067,399.050781 
	C1312.455933,396.507935 1315.779419,394.611176 1319.930908,397.172882 
	C1332.539062,404.953094 1346.434814,403.647003 1360.247314,402.933746 
	C1366.804199,402.595154 1371.981079,399.591125 1376.165771,394.653778 
	C1379.981567,390.151642 1381.195923,384.989532 1378.376221,379.829590 
	C1375.443848,374.463440 1372.011230,368.933807 1364.709717,368.959473 
	C1359.890625,368.976379 1355.077026,369.703217 1350.254883,369.795685 
	C1333.519043,370.116577 1321.657593,358.394989 1322.106567,341.735474 
	C1322.262939,335.933014 1323.393799,330.162445 1323.924316,324.363129 
	C1324.655273,316.371674 1321.310547,310.897949 1314.041748,307.863098 
	C1307.394409,305.087708 1301.308228,306.491913 1296.257690,312.674286 
	C1293.779907,315.707306 1291.383545,319.230133 1290.323486,322.925232 
	C1285.555664,339.544037 1287.120117,355.864716 1294.079590,371.635468 
	C1295.308472,374.419952 1295.523804,376.167328 1292.604980,378.152985 
	C1277.461792,388.454529 1262.705933,399.340118 1247.373657,409.345612 
	C1221.968384,425.924408 1194.885254,438.490356 1164.839355,444.755371 
	C1130.165894,451.985291 1097.343628,448.890594 1066.281128,431.298676 
	C1059.144653,427.256958 1059.107300,427.206665 1062.461792,419.362122 
	C1066.787354,409.246857 1068.869507,398.701263 1068.320068,387.731354 
	C1067.825684,377.859589 1060.483887,370.480682 1051.663330,370.557220 
	C1041.619995,370.644409 1035.313721,377.398499 1034.915283,388.313568 
	C1034.830933,390.623138 1034.259888,392.914917 1033.913086,395.214905 
	C1033.263794,395.338593 1032.614502,395.462311 1031.965210,395.585999 
	C1030.365723,392.288544 1028.166382,389.147552 1027.258911,385.669556 
	C1017.726501,349.133209 1016.006592,312.779205 1030.020874,276.778107 
	C1044.496216,239.592407 1065.920898,207.754486 1099.607422,185.217377 
	C1116.378784,173.996933 1134.794067,166.428711 1154.891846,165.258942 
	C1176.595947,163.995667 1196.561157,170.920624 1214.671631,182.926422 
	C1218.416138,185.408783 1221.834473,188.400085 1225.659668,190.736832 
	C1227.462646,191.838272 1229.872925,191.945541 1232.008057,192.503265 
	C1232.408569,190.462006 1233.419678,188.318298 1233.097412,186.398331 
	C1232.054077,180.180862 1230.755005,173.983139 1229.128418,167.891525 
	C1225.692505,155.023438 1217.056885,147.609314 1204.155640,144.911148 
	C1184.475830,140.795319 1164.821533,141.299118 1145.114136,144.869080 
	C1083.521484,156.026474 1039.377563,191.399811 1008.448853,244.343903 
	C989.815491,276.240814 980.266663,311.056305 979.660217,348.126892 
	C979.369873,365.872650 980.622864,383.417694 987.704956,400.053314 
	C989.625671,404.564819 991.320007,409.172668 993.568298,414.878326 
	C990.453125,413.785431 988.476013,413.159241 986.549500,412.404114 
	C978.579834,409.280457 971.382751,410.819489 966.642700,416.706696 
	C961.857788,422.649597 961.745239,430.068726 966.691528,437.036469 
	C972.655701,445.438110 981.390015,449.563568 991.207947,450.834625 
	C1000.091125,451.984650 1009.124023,452.056274 1018.098816,452.394531 
	C1024.749023,452.645111 1030.766235,454.117676 1036.230713,458.309265 
	C1040.428589,461.529144 1045.298218,463.873352 1050.536987,466.922455 
M52.936600,131.666962 
	C64.600761,135.135727 72.585747,127.504974 72.455879,120.141586 
	C72.350647,114.175308 72.519958,108.059494 71.283936,102.284737 
	C67.431213,84.284531 57.613934,69.359825 45.709568,55.689648 
	C39.564545,48.633125 32.885696,42.218567 23.850359,38.896008 
	C13.832637,35.212196 5.121043,40.216408 3.732295,50.678925 
	C3.300304,53.933441 3.118288,57.369251 3.659200,60.581039 
	C7.507788,83.432915 18.887960,102.441978 34.261852,119.309265 
	C39.234688,124.765144 44.854717,129.380783 52.936600,131.666962 
M260.256714,65.871231 
	C260.171967,60.582611 260.704865,55.195457 259.880005,50.024906 
	C257.867126,37.407162 248.610474,32.593311 237.838791,38.127613 
	C236.079117,39.031696 234.329437,40.115356 232.886612,41.452187 
	C208.489487,64.057274 198.254517,92.261482 200.163712,125.135651 
	C200.266693,126.908852 201.559814,128.868790 202.819031,130.276596 
	C209.893417,138.185745 219.000732,138.233276 228.239578,129.931320 
	C247.019897,113.055496 256.034180,91.114944 260.256714,65.871231 
M117.283073,32.900356 
	C116.451553,35.755497 115.334839,38.561672 114.834854,41.473736 
	C111.626373,60.160671 111.717941,78.885338 115.501343,97.443787 
	C117.352013,106.521751 121.481880,114.676414 129.242813,120.445480 
	C134.736862,124.529449 140.734604,124.915596 145.453598,120.004272 
	C149.350082,115.948975 152.869049,110.968407 154.862488,105.751053 
	C161.201843,89.159439 159.944580,71.809845 158.435028,54.549812 
	C157.370438,42.377586 154.129074,31.083111 145.251312,22.042931 
	C139.356049,16.039820 132.476151,15.230164 126.306610,20.876562 
	C122.849823,24.040249 120.490952,28.403589 117.283073,32.900356 
z"/>
<path fill="#38B7FD" opacity="1.000000" stroke="none" 
	d="
M19.946030,407.795807 
	C19.501036,399.775635 18.252058,392.083099 18.958241,384.574463 
	C20.110600,372.321747 31.579439,367.139069 42.137863,373.542267 
	C47.259773,376.648438 52.119316,380.188599 57.084042,383.552338 
	C89.926826,405.804565 126.076134,417.472595 165.837280,418.293335 
	C184.028519,418.668854 202.114304,418.545441 220.017258,414.965454 
	C231.141342,412.741028 241.310638,408.424927 249.834900,400.717438 
	C272.285431,380.418060 260.064514,356.443268 243.982788,347.105194 
	C227.359116,337.452423 209.694992,329.960358 191.131653,325.003052 
	C162.532822,317.365753 133.641205,310.801666 105.138916,302.833893 
	C84.046928,296.937653 63.743595,288.761993 47.543484,273.125458 
	C19.751507,246.300369 17.372175,204.793442 41.928116,174.934067 
	C58.873711,154.328705 81.780396,143.382751 107.224495,139.457230 
	C136.932388,134.873886 166.846954,134.981369 196.111496,144.740494 
	C230.049973,156.058258 249.585419,179.386658 256.339020,214.033295 
	C256.906830,216.946381 257.095978,220.017700 256.900024,222.978363 
	C256.440033,229.928162 249.393585,233.889999 243.570786,230.149216 
	C239.733734,227.684128 236.259445,224.353012 233.343307,220.815643 
	C226.252472,212.214279 220.036896,202.861023 212.634949,194.553589 
	C201.633896,182.206772 186.534256,177.120605 170.994278,173.379028 
	C140.996445,166.156418 113.578033,172.315186 88.536240,189.869339 
	C80.604836,195.429214 74.396362,202.670547 70.865059,211.734985 
	C64.608521,227.794754 71.575798,245.103027 88.081764,252.530014 
	C101.260803,258.459991 114.995392,263.203247 128.627838,268.068512 
	C168.295288,282.225281 208.101456,295.996185 247.699310,310.343201 
	C257.339172,313.835846 266.987244,318.021088 275.592957,323.514771 
	C298.750305,338.297943 307.248230,359.922821 303.682709,387.045135 
	C299.982147,415.194885 282.845978,431.829712 258.116913,442.269257 
	C238.268448,450.648407 217.535583,454.993805 195.917480,454.924561 
	C183.086731,454.883484 170.250381,455.310730 157.425201,455.068634 
	C122.087746,454.401581 87.658279,448.007111 53.938782,437.705963 
	C43.385399,434.481964 34.395809,428.303741 27.145433,420.029388 
	C24.160402,416.622711 22.359545,412.178375 19.946030,407.795807 
z"/>
<path fill="#37B6FD" opacity="1.000000" stroke="none" 
	d="
M740.986267,347.834442 
	C762.147522,347.868652 783.308777,347.904724 804.470032,347.936646 
	C833.299500,347.980133 862.128906,348.020599 890.958374,348.061646 
	C893.079590,348.064667 895.200806,348.062012 897.973389,348.062012 
	C897.973389,388.578583 897.973389,428.446960 897.973389,468.412384 
	C890.752563,468.412384 884.309265,468.147095 877.901062,468.507385 
	C873.751831,468.740692 869.654053,469.888550 864.984253,470.383270 
	C863.937500,466.040100 864.288208,461.594086 862.783386,457.905060 
	C858.186340,446.635803 843.295898,439.436798 831.191467,442.316345 
	C820.171814,444.937866 808.114563,453.322113 809.609497,468.090332 
	C809.704407,469.028351 809.309937,470.015869 809.143127,470.980408 
	C806.096375,470.331360 803.052856,469.137970 800.002258,469.119415 
	C775.539490,468.970428 751.074463,468.946014 726.612305,469.144653 
	C722.566040,469.177490 718.530090,470.482666 713.970703,470.938568 
	C713.092285,466.745148 713.468079,462.563171 712.233337,458.928345 
	C708.691650,448.502625 697.591370,441.688263 685.571960,441.823853 
	C673.328064,441.961945 663.709412,448.457550 660.075867,459.513336 
	C658.905090,463.075470 658.707031,466.957275 658.063965,470.692810 
	C653.051514,469.872955 648.062012,468.585999 643.021606,468.339661 
	C634.906738,467.943085 626.758423,468.233215 618.673584,468.233215 
	C618.673584,430.511719 618.673584,393.153503 618.683960,354.945801 
	C618.807861,352.324860 618.921326,350.553375 619.070374,348.226929 
	C625.889648,348.226929 632.343445,348.247009 638.797119,348.223572 
	C672.860168,348.099915 706.923218,347.965271 740.986267,347.834442 
z"/>
<path fill="#F61B1C" opacity="1.000000" stroke="none" 
	d="
M1050.203003,466.764740 
	C1045.298218,463.873352 1040.428589,461.529144 1036.230713,458.309265 
	C1030.766235,454.117676 1024.749023,452.645111 1018.098816,452.394531 
	C1009.124023,452.056274 1000.091125,451.984650 991.207947,450.834625 
	C981.390015,449.563568 972.655701,445.438110 966.691528,437.036469 
	C961.745239,430.068726 961.857788,422.649597 966.642700,416.706696 
	C971.382751,410.819489 978.579834,409.280457 986.549500,412.404114 
	C988.476013,413.159241 990.453125,413.785431 993.568298,414.878326 
	C991.320007,409.172668 989.625671,404.564819 987.704956,400.053314 
	C980.622864,383.417694 979.369873,365.872650 979.660217,348.126892 
	C980.266663,311.056305 989.815491,276.240814 1008.448853,244.343903 
	C1039.377563,191.399811 1083.521484,156.026474 1145.114136,144.869080 
	C1164.821533,141.299118 1184.475830,140.795319 1204.155640,144.911148 
	C1217.056885,147.609314 1225.692505,155.023438 1229.128418,167.891525 
	C1230.755005,173.983139 1232.054077,180.180862 1233.097412,186.398331 
	C1233.419678,188.318298 1232.408569,190.462006 1232.008057,192.503265 
	C1229.872925,191.945541 1227.462646,191.838272 1225.659668,190.736832 
	C1221.834473,188.400085 1218.416138,185.408783 1214.671631,182.926422 
	C1196.561157,170.920624 1176.595947,163.995667 1154.891846,165.258942 
	C1134.794067,166.428711 1116.378784,173.996933 1099.607422,185.217377 
	C1065.920898,207.754486 1044.496216,239.592407 1030.020874,276.778107 
	C1016.006592,312.779205 1017.726501,349.133209 1027.258911,385.669556 
	C1028.166382,389.147552 1030.365723,392.288544 1031.965210,395.585999 
	C1032.614502,395.462311 1033.263794,395.338593 1033.913086,395.214905 
	C1034.259888,392.914917 1034.830933,390.623138 1034.915283,388.313568 
	C1035.313721,377.398499 1041.619995,370.644409 1051.663330,370.557220 
	C1060.483887,370.480682 1067.825684,377.859589 1068.320068,387.731354 
	C1068.869507,398.701263 1066.787354,409.246857 1062.461792,419.362122 
	C1059.107300,427.206665 1059.144653,427.256958 1066.281128,431.298676 
	C1097.343628,448.890594 1130.165894,451.985291 1164.839355,444.755371 
	C1194.885254,438.490356 1221.968384,425.924408 1247.373657,409.345612 
	C1262.705933,399.340118 1277.461792,388.454529 1292.604980,378.152985 
	C1295.523804,376.167328 1295.308472,374.419952 1294.079590,371.635468 
	C1287.120117,355.864716 1285.555664,339.544037 1290.323486,322.925232 
	C1291.383545,319.230133 1293.779907,315.707306 1296.257690,312.674286 
	C1301.308228,306.491913 1307.394409,305.087708 1314.041748,307.863098 
	C1321.310547,310.897949 1324.655273,316.371674 1323.924316,324.363129 
	C1323.393799,330.162445 1322.262939,335.933014 1322.106567,341.735474 
	C1321.657593,358.394989 1333.519043,370.116577 1350.254883,369.795685 
	C1355.077026,369.703217 1359.890625,368.976379 1364.709717,368.959473 
	C1372.011230,368.933807 1375.443848,374.463440 1378.376221,379.829590 
	C1381.195923,384.989532 1379.981567,390.151642 1376.165771,394.653778 
	C1371.981079,399.591125 1366.804199,402.595154 1360.247314,402.933746 
	C1346.434814,403.647003 1332.539062,404.953094 1319.930908,397.172882 
	C1315.779419,394.611176 1312.455933,396.507935 1309.044067,399.050781 
	C1292.223999,411.586426 1275.740967,424.634094 1258.359619,436.343964 
	C1226.841919,457.577576 1192.624023,473.090881 1154.889038,479.259338 
	C1119.078369,485.113190 1083.815796,483.738556 1050.203003,466.764740 
z"/>
<path fill="#C8DF6C" opacity="1.000000" stroke="none" 
	d="
M427.038635,133.095398 
	C438.021698,130.694351 448.921326,126.757591 460.002106,126.155884 
	C510.175629,123.431358 552.768860,153.997681 565.086426,202.787918 
	C572.890747,233.700912 566.580078,263.000977 546.681580,288.514191 
	C536.537415,301.520721 524.321960,312.669495 508.886749,318.809662 
	C498.334015,323.007538 494.917419,329.846863 493.915344,340.443970 
	C490.317169,378.494812 485.994446,416.477264 481.910675,454.481842 
	C481.627197,457.120087 481.154877,459.748047 480.606079,462.346100 
	C477.627625,476.446930 472.739319,481.611328 458.071625,483.637756 
	C440.783966,486.026093 424.381714,483.652313 411.308960,470.583771 
	C409.568970,468.844330 407.994080,465.811279 408.139893,463.490204 
	C409.452972,442.589020 411.023865,421.700775 412.807861,400.833435 
	C414.365143,382.617645 416.293335,364.433563 418.061493,346.235840 
	C418.752655,339.122528 419.134155,331.958038 420.281464,324.918701 
	C420.885193,321.214508 419.769196,318.785309 417.209045,316.620270 
	C411.363373,311.676758 405.390686,306.880157 399.624725,301.846252 
	C380.975037,285.564209 370.835938,264.621124 367.110901,240.514328 
	C362.666290,211.750900 369.810608,185.844513 388.896027,163.890625 
	C396.467255,155.181473 405.860931,148.056641 415.016174,139.902206 
	C419.417847,137.427750 423.228241,135.261566 427.038635,133.095398 
M552.806763,229.020569 
	C552.537781,224.379761 552.530457,219.706238 551.954895,215.103760 
	C549.303467,193.902283 539.700989,176.157822 523.884888,162.056259 
	C513.026978,152.375443 499.742981,146.566422 485.755859,143.182419 
	C477.842499,141.267914 469.272217,140.322449 461.202820,141.091415 
	C418.861664,145.126251 382.221039,177.760422 381.780121,224.757507 
	C381.501343,254.474579 392.749634,278.480591 416.803955,296.055450 
	C435.582642,309.775787 456.902344,314.487152 479.703979,311.100037 
	C513.880371,306.023315 535.871094,285.887848 548.234375,253.391693 
	C549.707947,245.566315 551.181458,237.740936 552.806763,229.020569 
z"/>
<path fill="#C8DE6C" opacity="1.000000" stroke="none" 
	d="
M740.802307,347.501495 
	C706.923218,347.965271 672.860168,348.099915 638.797119,348.223572 
	C632.343445,348.247009 625.889648,348.226929 619.070374,348.226929 
	C618.921326,350.553375 618.807861,352.324860 618.589355,354.530579 
	C618.281677,351.333008 617.907532,347.701385 617.902527,344.069275 
	C617.847412,304.074707 617.849731,264.080048 618.353149,223.634995 
	C658.537720,223.184555 698.205750,223.184555 737.839294,223.184555 
	C738.208313,221.124969 738.467285,219.679367 738.726257,218.233765 
	C738.742310,221.046173 738.766235,223.858566 738.773193,226.670990 
	C738.865051,263.589722 738.915710,300.508698 739.111755,337.426849 
	C739.129028,340.676666 740.093750,343.921417 740.802307,347.501495 
z"/>
<path fill="#F61A1B" opacity="1.000000" stroke="none" 
	d="
M738.666504,217.738129 
	C738.467285,219.679367 738.208313,221.124969 737.839294,223.184555 
	C698.205750,223.184555 658.537720,223.184555 618.395752,223.178589 
	C617.877136,222.942627 617.832458,222.712646 617.857971,221.800461 
	C617.859497,220.186783 617.790894,219.255325 617.722229,218.323853 
	C617.722229,180.511871 617.722229,142.699875 617.722229,104.567017 
	C658.066650,104.567017 697.990356,104.567017 738.606750,104.567017 
	C738.606750,142.056427 738.606750,179.649475 738.666504,217.738129 
z"/>
<path fill="#F61C1D" opacity="1.000000" stroke="none" 
	d="
M52.572201,131.507904 
	C44.854717,129.380783 39.234688,124.765144 34.261852,119.309265 
	C18.887960,102.441978 7.507788,83.432915 3.659200,60.581039 
	C3.118288,57.369251 3.300304,53.933441 3.732295,50.678925 
	C5.121043,40.216408 13.832637,35.212196 23.850359,38.896008 
	C32.885696,42.218567 39.564545,48.633125 45.709568,55.689648 
	C57.613934,69.359825 67.431213,84.284531 71.283936,102.284737 
	C72.519958,108.059494 72.350647,114.175308 72.455879,120.141586 
	C72.585747,127.504974 64.600761,135.135727 52.572201,131.507904 
z"/>
<path fill="#F61B1C" opacity="1.000000" stroke="none" 
	d="
M260.203369,66.317093 
	C256.034180,91.114944 247.019897,113.055496 228.239578,129.931320 
	C219.000732,138.233276 209.893417,138.185745 202.819031,130.276596 
	C201.559814,128.868790 200.266693,126.908852 200.163712,125.135651 
	C198.254517,92.261482 208.489487,64.057274 232.886612,41.452187 
	C234.329437,40.115356 236.079117,39.031696 237.838791,38.127613 
	C248.610474,32.593311 257.867126,37.407162 259.880005,50.024906 
	C260.704865,55.195457 260.171967,60.582611 260.203369,66.317093 
z"/>
<path fill="#F61B1C" opacity="1.000000" stroke="none" 
	d="
M117.460236,32.563381 
	C120.490952,28.403589 122.849823,24.040249 126.306610,20.876562 
	C132.476151,15.230164 139.356049,16.039820 145.251312,22.042931 
	C154.129074,31.083111 157.370438,42.377586 158.435028,54.549812 
	C159.944580,71.809845 161.201843,89.159439 154.862488,105.751053 
	C152.869049,110.968407 149.350082,115.948975 145.453598,120.004272 
	C140.734604,124.915596 134.736862,124.529449 129.242813,120.445480 
	C121.481880,114.676414 117.352013,106.521751 115.501343,97.443787 
	C111.717941,78.885338 111.626373,60.160671 114.834854,41.473736 
	C115.334839,38.561672 116.451553,35.755497 117.460236,32.563381 
z"/>
<path fill="#030406" opacity="1.000000" stroke="none" 
	d="
M658.125488,471.023621 
	C658.707031,466.957275 658.905090,463.075470 660.075867,459.513336 
	C663.709412,448.457550 673.328064,441.961945 685.571960,441.823853 
	C697.591370,441.688263 708.691650,448.502625 712.233337,458.928345 
	C713.468079,462.563171 713.092285,466.745148 713.608154,471.172424 
	C713.299561,480.092346 710.163269,487.199829 702.840881,491.748993 
	C699.441711,493.860809 695.605469,496.048218 691.770630,496.488770 
	C686.590393,497.083923 681.138733,496.496826 675.949524,495.585419 
	C665.301147,493.715149 661.744019,485.254272 659.155884,476.185181 
	C658.706604,474.610992 658.503662,472.966461 658.125488,471.023621 
M698.213501,470.546295 
	C697.582153,468.188629 697.350464,465.620361 696.240784,463.514771 
	C693.466431,458.250519 685.809814,456.114929 680.130798,458.679779 
	C675.179932,460.915802 672.208862,467.897736 674.091492,473.770874 
	C675.401672,475.420654 676.538757,477.254761 678.058105,478.681885 
	C681.239807,481.670532 685.044922,483.192413 689.345032,481.516235 
	C693.939636,479.725250 697.858276,477.124695 698.213501,470.546295 
z"/>
<path fill="#030405" opacity="1.000000" stroke="none" 
	d="
M809.109131,470.987946 
	C809.309937,470.015869 809.704407,469.028351 809.609497,468.090332 
	C808.114563,453.322113 820.171814,444.937866 831.191467,442.316345 
	C843.295898,439.436798 858.186340,446.635803 862.783386,457.905060 
	C864.288208,461.594086 863.937500,466.040100 864.629028,470.534729 
	C864.822693,470.929565 864.868347,470.935120 864.603699,471.063049 
	C864.304199,472.000244 864.269409,472.809540 864.234619,473.618835 
	C862.735657,488.141174 852.484802,497.192078 837.775085,496.800598 
	C834.138489,496.703827 830.444275,496.444489 826.898621,495.687592 
	C815.516113,493.257874 811.562317,484.691833 809.899292,473.685730 
	C809.628296,472.291870 809.345886,471.609375 809.063477,470.926880 
	C809.063416,470.926910 809.075195,470.995514 809.109131,470.987946 
M848.533752,473.955078 
	C848.633545,472.319489 848.946838,470.663696 848.794189,469.052032 
	C848.281555,463.641602 844.571960,458.958282 839.997131,457.647888 
	C834.560303,456.090607 830.712830,458.814056 827.488708,462.587494 
	C824.349915,466.261078 822.303223,470.318115 826.056091,475.666412 
	C832.584839,485.331482 842.462158,484.818970 848.533752,473.955078 
z"/>
<path fill="#FCFDE5" opacity="1.000000" stroke="none" 
	d="
M426.774536,132.788818 
	C423.228241,135.261566 419.417847,137.427750 415.276794,139.679077 
	C416.977356,132.163300 418.483978,131.214600 426.774536,132.788818 
z"/>
<path fill="#C8DE6C" opacity="1.000000" stroke="none" 
	d="
M617.534119,218.509079 
	C617.790894,219.255325 617.859497,220.186783 617.818359,221.451263 
	C617.587708,220.754288 617.466858,219.724304 617.534119,218.509079 
z"/>
<path fill="#37B6FD" opacity="1.000000" stroke="none" 
	d="
M809.001953,471.218750 
	C809.345886,471.609375 809.628296,472.291870 809.838623,473.257202 
	C809.491150,472.863586 809.215759,472.187103 809.001953,471.218750 
z"/>
<path fill="#37B6FD" opacity="1.000000" stroke="none" 
	d="
M864.481018,473.446533 
	C864.269409,472.809540 864.304199,472.000244 864.617432,471.044556 
	C864.839661,471.690216 864.783508,472.482208 864.481018,473.446533 
z"/>
<path fill="#FFFFFE" opacity="1.000000" stroke="none" 
	d="
M547.832275,254.031616 
	C535.871094,285.887848 513.880371,306.023315 479.703979,311.100037 
	C456.902344,314.487152 435.582642,309.775787 416.803955,296.055450 
	C392.749634,278.480591 381.501343,254.474579 381.780121,224.757507 
	C382.221039,177.760422 418.861664,145.126251 461.202820,141.091415 
	C469.272217,140.322449 477.842499,141.267914 485.755859,143.182419 
	C499.742981,146.566422 513.026978,152.375443 523.884888,162.056259 
	C539.700989,176.157822 549.303467,193.902283 551.954895,215.103760 
	C552.530457,219.706238 552.537781,224.379761 552.387268,229.490967 
	C550.799438,229.960876 549.631165,229.960373 548.375061,229.546326 
	C547.252075,218.953674 541.386658,212.067673 532.771912,207.472794 
	C530.319824,206.164917 526.989258,205.982376 524.104248,206.128204 
	C519.592102,206.356293 517.103271,209.983353 518.766846,214.155090 
	C520.341858,218.104630 522.603821,221.860062 525.041504,225.368896 
	C529.876770,232.328857 530.271667,237.013016 524.674622,243.328888 
	C520.858948,247.634644 516.018433,251.029861 511.659088,254.858353 
	C510.841766,255.576157 509.602814,256.332642 509.461487,257.215759 
	C508.655518,262.253113 516.443665,269.354156 521.551086,268.294220 
	C531.455627,266.238800 538.262817,259.867096 544.261597,252.016800 
	C545.669617,252.718597 546.750977,253.375107 547.832275,254.031616 
z"/>
<path fill="#F9FCDE" opacity="1.000000" stroke="none" 
	d="
M548.033325,253.711655 
	C546.750977,253.375107 545.669617,252.718597 544.326904,251.640945 
	C545.531250,244.133163 546.997070,237.046524 548.462891,229.959869 
	C549.631165,229.960373 550.799438,229.960876 552.311401,229.938461 
	C551.181458,237.740936 549.707947,245.566315 548.033325,253.711655 
z"/>
<path fill="#F4F8FA" opacity="1.000000" stroke="none" 
	d="
M697.885803,471.375183 
	C697.858276,477.124695 693.939636,479.725250 689.345032,481.516235 
	C685.044922,483.192413 681.239807,481.670532 678.058105,478.681885 
	C676.538757,477.254761 675.401672,475.420654 674.208252,473.099792 
	C678.028748,468.172821 692.082581,467.544373 697.885803,471.375183 
z"/>
<path fill="#37B2F7" opacity="1.000000" stroke="none" 
	d="
M698.049683,470.960754 
	C692.082581,467.544373 678.028748,468.172821 674.162109,472.758972 
	C672.208862,467.897736 675.179932,460.915802 680.130798,458.679779 
	C685.809814,456.114929 693.466431,458.250519 696.240784,463.514771 
	C697.350464,465.620361 697.582153,468.188629 698.049683,470.960754 
z"/>
<path fill="#36AEF2" opacity="1.000000" stroke="none" 
	d="
M825.863464,474.982574 
	C822.303223,470.318115 824.349915,466.261078 827.488708,462.587494 
	C830.712830,458.814056 834.560303,456.090607 839.997131,457.647888 
	C844.571960,458.958282 848.281555,463.641602 848.794189,469.052032 
	C848.946838,470.663696 848.633545,472.319489 848.246948,473.879639 
	C848.431335,470.165527 846.135620,469.000214 843.205994,469.078674 
	C838.608887,469.201752 834.011719,469.627167 829.435852,470.121735 
	C826.674255,470.420227 825.556274,472.259521 825.863464,474.982574 
z"/>
<path fill="#FAFCFD" opacity="1.000000" stroke="none" 
	d="
M825.959778,475.324493 
	C825.556274,472.259521 826.674255,470.420227 829.435852,470.121735 
	C834.011719,469.627167 838.608887,469.201752 843.205994,469.078674 
	C846.135620,469.000214 848.431335,470.165527 848.032654,474.163300 
	C842.462158,484.818970 832.584839,485.331482 825.959778,475.324493 
z"/>
<path fill="#C8E06E" opacity="1.000000" stroke="none" 
	d="
M548.375122,229.546341 
	C546.997070,237.046524 545.531250,244.133163 544.000244,251.595673 
	C538.262817,259.867096 531.455627,266.238800 521.551086,268.294220 
	C516.443665,269.354156 508.655518,262.253113 509.461487,257.215759 
	C509.602814,256.332642 510.841766,255.576157 511.659088,254.858353 
	C516.018433,251.029861 520.858948,247.634644 524.674622,243.328888 
	C530.271667,237.013016 529.876770,232.328857 525.041504,225.368896 
	C522.603821,221.860062 520.341858,218.104630 518.766846,214.155090 
	C517.103271,209.983353 519.592102,206.356293 524.104248,206.128204 
	C526.989258,205.982376 530.319824,206.164917 532.771912,207.472794 
	C541.386658,212.067673 547.252075,218.953674 548.375122,229.546341 
z"/>
</svg>